# xmcd
#
# Track frame offsets: 
#        150
#        16234
#        31667
#        56380
#        87857
#        145890
#        168292
#
# Disc length: 2502 seconds
#
# Revision: 0
# Processed by: cddbd v1.5.2PL0 Copyright (c) Steve Scherf et al.
# Submitted via: ExactAudioCopy v0.99pb4
#
DISCID=4809c407
DTITLE=Rick Derringer - Live in Cleveland
DYEAR=2009
DGENRE=Blues/Rock
TTITLE0=Let Me In
TTITLE1=Teenage Love Affair
TTITLE2=Sailor
TTITLE3=Beyond the Universe
TTITLE4=Rock and Roll, Hoochie Koo
TTITLE5=Roll with Me
TTITLE6=Rebel Rebel
EXTD=
EXTT0=
EXTT1=
EXTT2=
EXTT3=
EXTT4=
EXTT5=
EXTT6=
PLAYORDER=
